<?xml version="1.0" encoding="UTF-8" standalone="no"?><!DOCTYPE svg PUBLIC "-//W3C//DTD SVG 1.1//EN" "http://www.w3.org/Graphics/SVG/1.1/DTD/svg11.dtd"><svg width="100%" height="100%" viewBox="0 0 699 567" version="1.1" xmlns="http://www.w3.org/2000/svg" xmlns:xlink="http://www.w3.org/1999/xlink" xml:space="preserve" xmlns:serif="http://www.serif.com/" style="fill-rule:evenodd;clip-rule:evenodd;stroke-linejoin:round;stroke-miterlimit:2;"><path d="M0,491.942l137.663,-235.849l72.88,-117.418l46.562,-75.917l48.587,-62.758l78.954,1.012l58.709,81.99l56.685,89.076l51.624,92.113l52.636,97.174l47.575,92.112l46.562,90.088l-22.269,17.208l-17.208,3.037l-13.159,-4.049l-13.159,4.049l-17.208,-3.037l-64.782,-73.892l-49.599,-72.88l-45.55,-69.844l-32.391,-49.599l-77.941,-129.565l-50.611,95.149l-43.526,79.966l-51.623,88.064l-33.403,50.611l-17.208,24.293l-29.355,33.403l-14.171,16.196l-13.159,8.098l-10.343,5.388l-14.926,-2.073l-6.219,-3.731l-7.048,3.317l-10.365,1.658l-11.194,-1.658l-9.951,-6.219l-20.316,-25.291l-1.751,-40.222Z" style="fill:#03dac6;"/></svg>